<?xml version="1.0" encoding="UTF-8"?>
<!DOCTYPE svg PUBLIC "-//W3C//DTD SVG 1.1//EN" "http://www.w3.org/Graphics/SVG/1.1/DTD/svg11.dtd">
<!-- Creator: CorelDRAW X8 -->
<svg xmlns="http://www.w3.org/2000/svg" xml:space="preserve" width="32mm" height="60mm" version="1.1" style="shape-rendering:geometricPrecision; text-rendering:geometricPrecision; image-rendering:optimizeQuality; fill-rule:evenodd; clip-rule:evenodd"
viewBox="0 0 21000 29700"
 xmlns:xlink="http://www.w3.org/1999/xlink">
 <defs>
  <style type="text/css">
   <![CDATA[
    .fil0 {fill:#312B5F}
   ]]>
  </style>
 </defs>
 <g id="Layer_x0020_1">
  <metadata id="CorelCorpID_0Corel-Layer"/>
  <path class="fil0" d="M8102 9000l335 260c-1412,-293 -581,-2478 392,-1864 -55,-280 488,-912 903,-859 304,39 602,271 599,602 -1,128 23,262 -13,560 -267,-1640 -1681,-628 -1124,594 -156,-246 -232,-476 -363,-586 -442,-372 -824,97 -901,500 -72,381 72,666 172,793zm249 -740c23,25 93,-4 91,-56 -2,-23 304,370 291,412 -2,7 -49,-21 -64,5 -15,24 -40,29 -62,10 -42,-35 -101,-155 -137,-192 -12,-12 -120,-142 -119,-179zm1235 -713c79,85 54,0 92,-15 14,-6 28,190 54,351 56,335 1,84 -34,85 -20,1 -59,82 -53,36 3,-16 -7,-83 -24,-163 -27,-127 -47,-268 -35,-294zm1122 165c225,-1361 2054,-1032 1612,180 360,-104 752,34 928,447 270,632 -48,1347 -901,1214 969,-254 703,-1292 -72,-1395 -204,-27 -493,237 -792,418 197,-215 485,-427 561,-581 217,-443 -174,-866 -558,-880 -429,-14 -549,248 -778,597zm756 -166c-6,104 84,100 118,115 12,6 -118,67 -204,186 -146,203 -59,1 -119,21 -73,26 21,-128 22,-130 65,-96 158,-184 183,-192zm730 1137c-13,106 14,58 86,56 32,-1 1,84 15,95 12,10 -111,22 -246,99 -109,62 -116,11 -137,-18 -22,-28 -69,-17 -101,-19 -77,-4 171,-100 172,-101 97,-64 158,-110 211,-112zm-2985 3719c-1446,1275 -2466,-372 -1504,-1360 -403,-13 -936,-292 -697,-1079 183,-602 891,-692 1303,-455 -1134,-161 -1291,915 -687,1291 210,131 634,-20 974,-66 -185,120 -571,219 -693,339 -804,791 314,2051 1304,1330zm2982 -2596c1751,540 1054,2302 -28,1972 209,344 -129,1059 -881,1390 -709,313 -1481,-235 -1469,-761 410,1067 3097,45 1739,-1190 202,89 496,376 668,379 958,22 1101,-1378 -29,-1790zm-4443 423c94,-68 6,-54 -4,-93 -4,-15 193,-4 355,-10 340,-14 84,10 81,44 -2,21 74,69 29,57 -16,-4 -84,-3 -166,4 -128,10 -271,13 -295,-2zm3115 1959c-106,5 -55,24 -40,94 6,32 -83,16 -92,31 -8,14 -40,-105 -139,-226 -80,-96 -30,-111 -6,-138 25,-26 6,-70 2,-102 -9,-77 128,151 129,152 79,85 135,138 146,189zm950 -1472c73,7 72,-95 55,-100 -20,-7 153,61 307,157l100 63c31,19 12,38 -10,37 -44,-2 -106,-52 -123,-34 -14,15 19,49 -27,43 -66,-7 -154,-62 -227,-91 -38,-15 -61,-50 -75,-75zm-3446 1229c-10,-92 -23,-46 -83,-30 -27,7 -18,-71 -32,-78 -12,-6 110,-40 209,-131 79,-74 139,-143 139,-113 1,33 58,67 111,13 33,-34 64,-76 100,-64 50,18 -338,336 -444,403zm2719 -2390c251,250 169,755 -184,1124 -353,368 -846,465 -1097,215 -251,-249 -169,-754 184,-1123 353,-369 845,-465 1097,-216zm-90 100c147,146 150,418 -57,688 -208,269 -503,303 -633,149 -82,-96 -308,-286 -290,-426 15,-109 109,-244 206,-331 241,-216 626,-227 774,-80zm-1552 167l109 24 45 -21c-254,-135 -761,-279 -1002,-485 10,-2 -3,122 -99,65 0,0 6,89 18,104 152,202 658,305 765,330 25,6 222,69 234,60 36,-29 24,-29 -70,-77zm295 1480c111,-111 134,221 105,228 -53,14 -163,331 -213,557 -24,110 -126,139 -156,144 -50,7 -77,36 -77,36 -178,9 291,-915 341,-965zm682 -2214c-84,133 -178,-187 -151,-201 48,-24 87,-357 87,-589 -1,-113 93,-163 121,-174 48,-18 68,-52 68,-52 172,-47 -87,956 -125,1016zm1009 496c108,-46 184,39 275,-7 80,-40 186,-9 269,22 74,27 148,-43 217,16 25,21 -86,62 -29,110 38,32 -120,52 -133,41 -45,-39 -347,9 -408,41 -77,41 -102,77 -150,57 -29,-11 -18,-85 -106,-101 -30,-5 46,-104 65,-179zm2626 -791c-21,7 -41,6 -59,-2 -19,-9 -32,-23 -40,-44 -8,-20 -8,-39 1,-57 8,-18 23,-30 43,-37 65,-22 135,-45 209,-68 -20,-27 -33,-51 -41,-71 -44,-113 -55,-203 -33,-269 24,-76 94,-134 208,-173 18,-6 44,-12 79,-20 34,-7 60,-14 79,-20 6,-3 15,-7 26,-12 12,-6 21,-10 26,-12 21,-7 41,-5 60,5 18,10 31,24 38,43 19,50 -12,88 -94,116 -19,6 -45,13 -80,21 -34,7 -60,14 -79,20 -67,23 -106,50 -117,83 -12,32 -2,88 30,169 10,26 30,49 60,70 45,-13 78,-23 99,-30 30,-10 69,-25 117,-44 49,-19 88,-34 118,-44 20,-7 40,-6 59,3 19,9 32,23 40,43 8,20 7,40 -1,58 -9,18 -23,30 -44,37 -28,10 -65,22 -112,38 -46,16 -83,29 -111,39 -53,18 -134,44 -241,79 -107,35 -187,61 -240,79zm128 -1223c-43,-63 -110,-96 -201,-100 -86,-4 -163,18 -233,65 -47,31 -73,75 -77,132 -5,54 11,108 47,161 41,62 107,94 196,94 82,1 158,-23 229,-71 59,-40 92,-81 97,-123 5,-40 -15,-93 -58,-158zm-529 -146c-30,-46 -45,-69 -45,-69 -19,-21 -47,-54 -85,-97 -9,6 -19,12 -28,18 -21,15 -76,47 -164,98 -18,10 -35,12 -53,7 -15,-5 -28,-15 -39,-31 -11,-16 -16,-34 -13,-52 2,-20 14,-36 33,-47 86,-50 137,-80 156,-93 58,-39 127,-83 207,-132 133,-81 203,-124 209,-128 18,-11 35,-14 53,-8 17,4 30,15 41,30 11,17 15,34 13,51 -2,20 -13,36 -31,47 -60,37 -148,91 -266,163 18,22 44,53 76,93 12,20 31,49 56,86 95,-34 189,-43 281,-25 105,21 186,73 243,158 133,197 109,356 -73,479 -96,64 -202,96 -317,93 -134,-3 -235,-57 -304,-159 -55,-82 -80,-167 -73,-256 7,-95 48,-170 123,-226zm-632 -266c-36,-31 -30,-73 16,-126 20,-23 50,-56 90,-101 41,-45 71,-79 91,-102 21,-24 50,-59 88,-105 40,-48 69,-83 87,-104 -13,-11 -23,-20 -31,-27 -18,-15 -44,-39 -78,-71 -35,-32 -61,-56 -79,-71 -6,-6 -14,-12 -22,-19 -25,36 -56,74 -91,115 -21,23 -52,58 -93,103 -42,45 -73,79 -93,102 -49,56 -95,89 -139,98 -53,11 -109,-9 -168,-61 -15,-13 -24,-29 -26,-48 -1,-19 4,-35 17,-50 18,-21 36,-29 55,-24 8,1 26,11 54,28 13,9 25,12 36,10 18,-3 39,-19 63,-46 21,-23 52,-57 93,-103 42,-45 73,-79 93,-102 46,-53 83,-101 112,-145 2,-12 7,-22 15,-31 12,-14 28,-22 47,-23 18,-2 35,4 51,18 9,8 23,21 41,39 18,18 32,31 42,39l244 213c15,13 23,29 25,48 3,20 -2,37 -15,51 -44,51 -109,128 -195,231 -86,103 -151,180 -195,230 -50,58 -95,69 -135,34zm-640 -536c-29,-16 -41,-43 -34,-79 8,-47 7,-113 -1,-199 -11,-107 -34,-171 -69,-190l-32 -18c-9,15 -22,39 -41,72 -17,30 -31,55 -41,73 -3,5 -8,15 -15,30 -8,15 -14,27 -19,35 -39,71 -81,94 -125,69 -18,-10 -29,-23 -36,-41 -6,-17 -4,-34 6,-52 11,-21 30,-52 55,-94 26,-42 45,-73 56,-94 23,-40 55,-101 96,-183 42,-82 74,-143 96,-183 31,-56 68,-73 111,-49 18,10 29,24 35,41 5,18 4,36 -6,53 -17,30 -52,97 -106,201 44,17 91,12 141,-16 43,-25 86,-51 128,-77 52,-22 101,-20 149,6 16,9 30,22 42,39 14,21 17,38 9,53 -7,12 -16,21 -29,27 -15,7 -28,7 -40,0 -24,-13 -66,3 -125,49 -50,39 -101,58 -155,58 30,58 50,138 61,239 10,101 5,171 -15,208 -10,17 -24,27 -43,30 -18,4 -36,1 -53,-8zm-517 -865c-45,20 -110,54 -196,101 -68,44 -144,96 -228,156 -24,18 -60,44 -107,78 -23,16 -46,20 -67,13 -22,-7 -38,-20 -47,-38 -9,-17 -10,-36 -2,-56 72,-183 112,-285 119,-306 27,-85 51,-164 71,-237 1,-6 5,-19 10,-40 4,-17 7,-30 11,-40 6,-19 17,-32 34,-40 17,-8 35,-9 54,-3 20,7 34,18 43,34 8,17 10,34 4,53 -3,9 -6,22 -10,38 -4,19 -7,32 -9,37 -12,44 -29,99 -50,163 -16,52 -34,103 -53,152 103,-71 218,-135 345,-193 22,-10 49,-26 81,-47 39,-27 65,-44 79,-52 18,-27 45,-34 78,-24 20,7 34,18 44,34 9,16 10,33 4,52 -6,20 -17,50 -31,89 -15,40 -26,70 -32,89 -8,23 -19,57 -35,102 -15,46 -27,80 -34,102 -10,30 -25,74 -47,132 -21,58 -37,102 -47,132 -6,18 -17,31 -34,40 -17,8 -35,9 -54,2 -20,-6 -34,-17 -43,-34 -9,-17 -10,-34 -5,-52 10,-30 26,-75 48,-134 22,-59 38,-103 48,-133 7,-22 16,-50 28,-85 16,-44 26,-72 30,-85zm-937 -430c-11,-1 -20,-2 -28,-3 -9,-1 -16,-1 -22,-1 -2,16 -5,40 -9,71 -5,38 -16,96 -31,175 17,5 28,7 34,8 53,7 98,0 136,-21 40,-22 63,-55 69,-99 3,-29 -11,-57 -43,-84 -31,-25 -66,-41 -106,-46zm-72 381c-6,-1 -20,-4 -43,-9 -7,47 -18,125 -31,233 -3,18 -11,32 -25,44 -14,11 -31,16 -50,13 -19,-2 -35,-11 -46,-25 -11,-15 -15,-31 -13,-49l17 -141c7,-53 20,-130 39,-232 20,-104 33,-181 39,-233 12,-88 42,-127 90,-117 12,-2 28,-2 49,-1 20,1 45,3 74,7 67,8 126,37 179,87 59,56 84,119 75,188 -10,87 -53,151 -128,194 -67,38 -142,51 -226,41zm-368 -476c3,49 -32,73 -105,74 -1,49 1,117 5,203 1,17 5,62 12,133 8,70 13,133 15,186 1,11 3,27 7,49 5,21 7,37 8,48 1,20 -6,36 -19,49 -13,14 -29,21 -49,22 -42,2 -67,-17 -74,-59 -9,-49 -14,-82 -15,-101 -3,-53 -8,-114 -15,-182 -7,-69 -11,-115 -12,-138 -5,-89 -6,-158 -6,-206 -15,3 -55,6 -118,10 -84,4 -166,7 -246,8 2,13 5,33 8,60 14,167 21,257 22,271 1,16 1,38 0,67 0,31 -1,53 0,67 0,13 1,30 2,51 2,29 3,46 4,52 2,40 0,67 -4,81 -8,29 -29,45 -63,46 -20,1 -37,-4 -51,-16 -15,-12 -22,-28 -23,-47 -5,-81 -7,-135 -8,-163 0,-13 0,-35 1,-66 0,-28 0,-49 0,-65 -1,-12 -8,-101 -22,-267 0,-1 -4,-23 -9,-66 -21,1 -39,2 -55,3 -20,1 -37,-4 -51,-16 -14,-13 -22,-29 -23,-48 -2,-47 32,-72 104,-75 4,-1 11,-1 20,-2 9,0 15,0 19,0 27,-1 67,-2 120,-3 54,-1 94,-2 121,-3l425 -21c21,-1 38,4 53,16 14,13 21,29 22,48zm-2001 540c-8,53 -18,124 -32,215 13,-9 34,-21 63,-35 35,-16 56,-27 65,-32 -24,-38 -56,-87 -96,-148zm373 416c-25,9 -62,-10 -111,-58 -32,-31 -63,-68 -95,-112 -22,13 -59,32 -111,57 -48,24 -85,43 -109,59 -1,40 -5,103 -13,187 -5,29 -19,48 -44,58 -17,7 -35,7 -54,1 -19,-6 -32,-19 -39,-37 -7,-16 -6,-80 3,-192 -9,-8 -14,-16 -17,-25 -5,-16 6,-34 32,-54 13,-96 31,-197 52,-303 31,-151 55,-231 74,-238 35,-14 66,-3 95,35 20,31 50,78 91,140 56,83 122,178 197,284 6,8 22,25 49,53 23,22 37,40 42,54 8,19 7,36 -2,55 -9,17 -22,30 -40,36zm-909 441c-52,31 -105,50 -158,56 -57,7 -99,-3 -125,-29 -4,-4 -7,-8 -10,-13 -9,-16 -11,-33 -6,-51 6,-18 17,-32 35,-43 27,-16 57,-21 90,-14 34,6 68,-1 104,-22 54,-33 89,-62 104,-88 17,-31 15,-65 -8,-103 -17,-27 -40,-42 -72,-45 -29,-4 -59,4 -90,22 -4,3 -9,6 -16,11 -7,5 -13,8 -16,11 -17,9 -33,13 -51,11 -19,-3 -33,-12 -43,-29 -9,-15 -12,-31 -10,-48 3,-17 12,-32 25,-44 6,-5 15,-12 28,-22 27,-21 47,-46 59,-76 12,-30 12,-55 -1,-76 -7,-12 -24,-20 -51,-21 -27,-2 -48,2 -63,11 -44,26 -76,55 -95,86 -7,11 -13,22 -20,34 -7,13 -16,22 -26,28 -16,9 -33,14 -52,13 -22,-1 -38,-10 -48,-27 -21,-36 -13,-78 26,-128 33,-43 81,-84 145,-122 51,-30 105,-42 163,-35 65,7 113,37 143,88 34,56 41,115 22,177 72,9 127,45 164,108 46,76 52,149 18,219 -29,58 -84,112 -165,161zm-1194 51c-5,5 -10,9 -17,13 -49,31 -91,65 -126,103 -18,19 -35,40 -52,64 -17,24 -34,51 -51,81 34,31 82,78 145,141 12,-15 53,-68 123,-159 39,-52 65,-84 77,-97 14,-14 30,-23 49,-24 19,-2 37,4 52,19 30,27 32,59 6,94 -17,22 -42,54 -76,97 -29,39 -74,96 -134,173 30,31 54,56 74,74 49,46 79,69 91,70 6,0 22,-14 49,-43 15,-15 36,-39 64,-71 29,-32 50,-55 64,-71 5,-5 11,-13 19,-24 7,-11 13,-19 18,-24 13,-14 29,-23 47,-25 20,-3 38,3 55,18 28,27 31,57 9,91 -18,29 -64,83 -138,162 -75,81 -136,124 -181,128 -49,5 -114,-31 -195,-106 -33,-31 -81,-80 -144,-148 -62,-67 -110,-116 -143,-147 -9,-9 -23,-19 -42,-33 -19,-13 -33,-24 -42,-32 -38,-36 -41,-71 -8,-106 10,-11 23,-18 37,-21 20,-36 40,-68 61,-98 21,-29 42,-55 64,-78 58,-63 112,-107 162,-131 30,-15 57,-11 79,10 13,12 21,27 22,46 2,20 -4,38 -18,54zm-345 1022c-18,25 -46,63 -83,112l157 110c31,-50 58,-109 81,-176 21,-59 23,-94 6,-104 -22,-15 -52,-12 -90,7 -31,14 -54,31 -71,51zm-331 -159c-25,36 -40,58 -44,66l89 62 87 62c21,-24 35,-42 43,-56 54,-90 52,-154 -4,-194 -20,-14 -48,-14 -84,-2 -37,12 -66,33 -87,62zm622 238c-22,82 -67,173 -137,272 -12,17 -29,27 -53,30 -23,4 -42,0 -58,-11l-444 -311c-20,-13 -39,-26 -59,-38 -22,-14 -40,-28 -53,-41 -23,-22 -22,-57 4,-106 9,-26 30,-63 65,-112 37,-53 89,-92 157,-116 80,-29 149,-23 208,19 33,23 56,48 69,75 12,21 20,51 24,88 32,-18 69,-28 110,-30 46,-3 84,6 113,26 37,26 58,71 63,135 3,43 0,82 -9,120zm-993 531c-31,69 -24,144 21,223 43,75 102,129 179,163 51,23 102,22 153,-4 48,-25 85,-66 112,-125 30,-69 22,-141 -25,-217 -42,-69 -103,-121 -181,-156 -65,-29 -117,-35 -156,-17 -37,17 -71,61 -103,133zm591 313c-41,92 -102,159 -184,200 -88,44 -176,46 -267,6 -105,-48 -187,-124 -245,-229 -65,-118 -72,-234 -21,-347 48,-108 109,-179 183,-211 74,-32 161,-25 261,19 106,48 188,121 247,220 68,115 77,229 26,342zm-147 514c-6,33 -27,52 -64,58 -47,8 -109,30 -188,65 -98,46 -150,88 -157,128l-7 36c17,3 44,8 81,15 35,7 63,12 83,15 6,1 17,3 33,5 17,2 30,4 40,5 79,15 115,47 106,97 -4,19 -13,35 -27,47 -15,11 -32,15 -51,12 -24,-5 -60,-12 -108,-22 -47,-11 -83,-18 -107,-23 -45,-8 -113,-18 -204,-31 -91,-12 -159,-23 -204,-31 -64,-11 -91,-40 -82,-88 3,-21 12,-36 27,-47 15,-11 32,-15 52,-12 34,6 109,18 225,35 2,-47 -19,-90 -61,-129 -38,-32 -76,-64 -115,-96 -38,-41 -52,-88 -43,-142 4,-18 11,-35 24,-52 15,-20 30,-29 46,-26 14,2 26,9 35,19 12,11 16,24 14,38 -5,27 24,60 86,102 53,34 88,77 106,127 45,-47 114,-92 206,-135 92,-43 159,-61 201,-53 19,3 34,13 43,30 10,16 13,34 10,53zm-765 911c-1,11 -1,21 -1,29 0,8 0,16 0,21 16,1 40,2 72,4 38,2 97,7 177,15 3,-17 5,-28 5,-34 2,-53 -9,-98 -33,-134 -25,-38 -60,-58 -105,-60 -29,-1 -55,16 -79,50 -23,33 -35,69 -36,109zm385 40c-1,5 -2,20 -6,42 48,4 127,8 236,12 18,0 33,7 46,20 12,13 18,30 17,49 -1,19 -8,35 -21,48 -13,12 -29,18 -47,17l-143 -5c-53,-2 -131,-8 -234,-19 -105,-10 -184,-16 -235,-18 -89,-4 -131,-30 -125,-79 -3,-12 -4,-28 -5,-49 -1,-20 -1,-45 0,-74 3,-67 26,-129 72,-186 50,-63 111,-94 180,-91 87,3 155,40 204,111 44,63 64,137 61,222zm-186 673c50,19 117,44 203,76 -6,-14 -13,-37 -20,-69 -9,-37 -15,-61 -18,-70 -43,16 -97,37 -165,63zm484 -279c4,27 -23,59 -79,97 -37,25 -80,48 -129,70 8,24 18,64 32,120 13,52 24,92 34,119 40,9 100,27 181,52 27,10 43,29 47,55 4,18 0,36 -10,53 -10,17 -24,27 -44,31 -17,3 -79,-12 -187,-43 -10,6 -19,10 -28,11 -17,1 -32,-13 -47,-42 -91,-34 -186,-71 -285,-114 -142,-62 -214,-103 -218,-122 -6,-37 12,-66 54,-86 35,-13 87,-33 156,-60 94,-37 200,-82 319,-133 9,-4 30,-17 62,-38 27,-17 48,-27 62,-29 20,-4 37,1 53,13 16,12 25,28 27,46zm-550 991c46,-18 81,7 104,76 48,-15 111,-39 191,-71 16,-7 57,-25 121,-55 65,-30 122,-55 172,-75 10,-4 25,-12 44,-22 18,-11 33,-19 43,-23 18,-7 36,-7 53,1 17,8 29,22 36,40 16,39 5,68 -32,89 -43,25 -73,40 -90,47 -49,20 -105,44 -168,73 -62,29 -105,48 -126,57 -83,33 -147,57 -193,72 8,14 24,50 48,109 31,78 61,155 88,230 12,-6 30,-15 54,-27 153,-68 236,-104 249,-109 14,-6 35,-14 63,-22 30,-10 51,-17 63,-22 13,-4 29,-11 48,-19 26,-11 43,-18 49,-20 36,-15 62,-22 77,-23 30,-1 52,13 64,44 8,19 8,37 2,55 -7,17 -19,30 -37,37 -76,30 -126,50 -152,60 -12,4 -33,11 -62,21 -27,8 -48,15 -62,21 -12,5 -93,41 -245,108 -1,0 -21,10 -60,30 8,19 15,35 21,50 8,19 8,37 1,54 -7,18 -20,30 -38,37 -43,18 -78,-7 -105,-73 -2,-5 -4,-11 -7,-19 -3,-8 -6,-14 -7,-18 -10,-25 -24,-62 -42,-113 -18,-50 -32,-88 -42,-113l-159 -395c-7,-19 -8,-37 -1,-55 7,-17 19,-30 37,-37zm9294 -2129c-1,-7 -2,-14 -1,-22 5,-57 3,-111 -7,-163 -4,-25 -11,-51 -20,-79 -10,-28 -21,-58 -35,-89 -45,8 -111,18 -200,32 5,18 23,83 55,193 18,63 28,103 31,120 4,20 1,38 -9,54 -10,17 -26,27 -46,30 -41,8 -67,-9 -80,-51 -7,-27 -18,-66 -32,-119 -14,-46 -34,-117 -59,-211 -43,5 -77,10 -104,15 -66,12 -102,23 -110,32 -4,4 -2,26 5,64 4,21 10,53 19,94 8,42 15,73 18,94 2,7 4,17 9,29 4,13 7,23 8,29 4,19 1,37 -7,53 -10,18 -26,29 -48,33 -38,7 -64,-9 -79,-47 -12,-32 -28,-101 -47,-207 -20,-109 -18,-183 5,-222 26,-42 93,-73 202,-93 45,-8 113,-17 204,-27 91,-10 159,-19 204,-27 12,-2 29,-7 51,-14 22,-8 40,-13 51,-15 51,-9 81,10 90,57 2,14 1,29 -6,43 17,37 31,73 42,107 12,34 20,66 26,98 15,84 18,153 8,208 -7,33 -25,52 -56,57 -17,4 -34,0 -50,-9 -18,-11 -28,-27 -32,-47zm68 1042c-24,-8 -46,-11 -65,-12 -9,0 -24,-2 -44,-4 -20,-3 -35,-4 -44,-4 -33,-1 -81,-4 -145,-10 -64,-5 -112,-8 -144,-9 -26,-1 -63,0 -113,2 -49,2 -87,3 -112,2 -18,0 -34,-7 -47,-21 -13,-13 -19,-30 -18,-50 1,-20 8,-37 21,-52 13,-14 29,-21 47,-20 25,1 62,1 112,0 50,-1 88,-1 112,0 20,0 37,1 52,2 -1,-53 -7,-120 -19,-199 -10,-66 -20,-131 -30,-197 -22,-2 -58,-5 -109,-11 -44,-4 -81,-7 -109,-8 -18,0 -32,-7 -44,-21 -11,-14 -17,-30 -17,-50 1,-20 8,-36 21,-49 13,-13 29,-19 47,-19 34,1 84,6 150,14 67,8 117,12 151,13 42,1 107,4 192,9 86,4 150,7 192,8 19,1 34,8 46,22 13,13 18,30 18,50 -1,20 -8,36 -21,49 -13,13 -29,19 -48,18 -26,0 -65,-2 -117,-6 -52,-3 -91,-5 -117,-6 -8,0 -24,-2 -48,-5 -23,-3 -40,-4 -52,-4l31 197c11,77 17,144 18,199 23,2 85,6 185,12 27,2 57,11 91,27 42,20 62,43 62,67 -1,18 -7,34 -20,48 -13,14 -30,21 -49,21 -5,-1 -10,-1 -16,-3zm-360 751c-24,-42 -64,-104 -119,-185 -50,-64 -109,-135 -176,-213 -20,-21 -49,-55 -88,-99 -17,-22 -24,-43 -19,-66 5,-22 16,-38 33,-49 17,-11 36,-14 57,-7 188,54 293,84 315,89 87,19 168,36 243,49 5,1 19,3 40,6 17,2 31,5 41,7 19,4 33,14 43,30 10,16 13,34 8,54 -4,20 -14,35 -30,46 -16,10 -33,13 -52,9 -10,-3 -23,-5 -38,-7 -20,-2 -33,-4 -39,-5 -45,-8 -100,-19 -166,-34 -54,-12 -106,-25 -157,-39 81,96 155,204 225,326 11,20 30,45 54,75 30,37 50,61 59,74 28,16 39,41 31,76 -5,20 -14,35 -29,46 -15,11 -33,14 -52,10 -21,-5 -51,-13 -92,-24 -40,-11 -71,-18 -91,-23 -24,-5 -59,-13 -105,-25 -47,-11 -82,-19 -105,-24 -30,-7 -75,-18 -135,-35 -60,-16 -106,-27 -136,-34 -19,-4 -33,-15 -43,-31 -9,-16 -12,-34 -7,-53 4,-20 14,-36 30,-46 15,-10 32,-14 51,-9 31,7 77,18 138,35 61,16 106,28 137,34 22,5 51,12 87,21 46,11 75,19 87,21zm-805 628c8,-19 21,-32 39,-39 18,-7 36,-7 54,1 16,8 42,18 76,32 34,13 60,24 76,31 15,-133 -2,-270 -52,-413 -7,-20 -7,-38 0,-55 8,-18 22,-31 40,-39 19,-7 37,-7 54,0 15,7 26,19 34,35 31,65 52,158 64,279 95,-99 182,-131 262,-96 99,44 153,147 162,310 2,37 -4,79 -17,125 -2,4 -16,44 -43,121 -10,29 -29,47 -57,53 -22,5 -43,3 -63,-6 -43,-18 -107,-44 -192,-78 -86,-34 -149,-59 -191,-78 -24,-10 -59,-25 -106,-45 -47,-19 -82,-34 -105,-44 -18,-8 -31,-21 -37,-39 -7,-18 -6,-36 2,-55zm638 186c5,-11 10,-28 18,-51 16,-48 18,-101 5,-156 -13,-59 -36,-96 -71,-111 -7,-3 -20,-1 -40,7 -19,7 -36,17 -51,29 -35,29 -70,81 -104,158 -2,5 -5,12 -9,22 16,7 57,22 121,48 53,20 97,38 131,54zm-7243 1100c-24,-22 -31,-47 -20,-75 12,-28 23,-57 34,-85 17,-41 30,-66 39,-76 11,-13 26,-18 44,-16 17,1 32,8 45,20 27,24 32,50 17,78 -3,7 -15,35 -34,83 -16,41 -28,65 -36,74 -11,12 -25,18 -43,17 -17,-1 -33,-8 -46,-20zm-163 -148c-22,-20 -29,-43 -21,-69 3,-11 14,-37 32,-79 20,-45 33,-70 38,-76 11,-12 26,-18 44,-16 17,2 33,8 46,20 23,22 30,46 18,74 -3,7 -14,34 -35,79 -21,45 -31,69 -33,70 -11,12 -25,18 -42,17 -18,-1 -33,-8 -47,-20zm579 1173c-39,-27 -38,-70 3,-128 17,-24 44,-61 80,-109 36,-49 62,-86 79,-110 19,-27 45,-65 77,-113 35,-53 61,-90 77,-113 -14,-10 -25,-18 -33,-23 -20,-14 -48,-35 -86,-64 -37,-28 -66,-49 -85,-63 -7,-5 -15,-10 -23,-16 -22,38 -49,79 -80,124 -18,25 -45,62 -82,111 -38,49 -65,86 -83,111 -43,61 -85,98 -128,111 -51,17 -109,2 -173,-43 -17,-12 -27,-27 -30,-46 -4,-18 0,-35 11,-51 16,-22 33,-32 53,-30 8,1 26,9 56,24 14,6 27,8 37,5 18,-5 37,-22 58,-52 18,-25 45,-62 82,-111 38,-49 65,-86 83,-111 40,-58 72,-109 96,-156 1,-12 5,-22 12,-32 11,-15 26,-25 44,-28 19,-3 36,1 53,13 10,7 25,19 45,35 20,16 35,27 46,35l263 186c16,12 27,27 31,46 4,20 1,37 -11,53 -38,54 -95,137 -171,248 -75,112 -132,195 -171,249 -44,62 -87,78 -130,48zm1134 -229c-7,-3 -13,-6 -19,-11 -47,-33 -95,-58 -144,-76 -24,-9 -50,-17 -79,-23 -29,-7 -61,-12 -94,-15 -16,42 -41,105 -75,187 19,6 83,23 194,52 64,17 104,28 120,34 19,7 33,19 42,36 9,17 10,35 2,55 -14,38 -42,52 -85,42 -26,-7 -65,-18 -118,-33 -47,-11 -118,-30 -212,-57 -17,40 -30,72 -40,97 -23,63 -33,100 -28,111 2,6 21,16 58,29 20,7 50,18 90,32 40,14 71,24 90,32 7,2 17,4 30,7 13,3 23,5 29,8 18,6 32,18 41,33 11,17 12,37 4,58 -13,36 -39,50 -79,44 -35,-6 -102,-28 -203,-65 -104,-38 -167,-78 -188,-118 -24,-43 -16,-117 22,-220 16,-43 43,-106 81,-190 38,-84 65,-147 80,-189 4,-11 9,-29 14,-52 5,-23 9,-40 14,-51 18,-49 49,-65 94,-48 14,5 25,14 34,26 40,5 78,11 113,18 36,8 68,18 98,29 80,29 141,62 183,99 25,22 32,48 21,77 -6,17 -17,29 -33,38 -19,10 -38,11 -57,4zm857 925c-1,5 -1,13 -2,23 -1,10 -2,18 -3,23 -3,19 -13,33 -29,44 -15,10 -33,13 -54,10 -30,-6 -49,-22 -55,-49 -4,-18 -3,-43 3,-76 2,-12 6,-29 12,-49 -41,-8 -118,-21 -229,-40 -110,-19 -187,-32 -229,-40 -9,46 -15,74 -17,85 -4,19 -13,34 -29,45 -15,10 -33,13 -53,10 -20,-4 -36,-14 -47,-29 -11,-15 -15,-32 -11,-51 3,-15 7,-37 13,-66 6,-30 10,-52 13,-67 -1,-10 -1,-16 0,-18 6,-34 34,-52 84,-52 92,-130 154,-280 185,-451 2,-13 3,-31 4,-56 0,-25 2,-42 4,-54 8,-44 44,-61 108,-50l255 46c-1,0 26,3 79,11 12,-4 24,-4 37,-2 20,3 35,13 46,28 12,15 15,32 12,51 -6,34 -15,85 -26,153 -11,67 -20,118 -26,151 -10,57 -30,153 -58,287l4 3c30,15 42,40 36,73 -2,12 -7,30 -13,53 -7,24 -12,42 -14,54zm-57 -720c-19,-4 -45,-8 -76,-14 -38,-8 -63,-13 -75,-15 -21,-4 -52,-9 -92,-15 -1,2 -3,17 -8,44 -13,67 -34,142 -64,224 -33,89 -68,163 -106,220 24,4 61,10 113,17 48,7 86,13 112,18 23,4 56,11 101,21 6,-30 15,-75 28,-137 13,-57 22,-103 29,-138 2,-14 15,-89 38,-225zm1117 -54c-6,25 -9,47 -9,65 1,10 0,25 -1,45 -1,20 -2,35 -2,44 1,33 1,81 0,145 -2,64 -2,113 -1,145 1,25 4,62 9,112 5,49 8,87 9,112 0,19 -6,35 -19,48 -13,14 -29,21 -49,21 -20,1 -37,-5 -53,-18 -15,-12 -22,-27 -23,-46 -1,-24 -3,-62 -7,-112 -3,-49 -5,-87 -6,-111 -1,-20 -1,-37 -1,-52 -53,4 -119,14 -197,31 -65,14 -131,28 -196,42 0,21 -1,58 -4,108 -2,45 -2,82 -1,110 0,18 -6,33 -19,45 -13,13 -29,19 -49,20 -20,0 -36,-5 -50,-18 -14,-12 -21,-27 -21,-46 -1,-33 0,-83 4,-151 4,-67 5,-117 4,-151 -1,-42 -2,-106 -2,-192 -1,-86 -2,-150 -3,-193 0,-18 6,-34 19,-47 12,-13 29,-19 49,-20 19,-1 36,5 50,18 13,12 20,28 21,47 1,26 1,65 1,117 -1,52 0,91 0,117 1,8 0,25 -2,49 -1,22 -1,40 -1,51l196 -42c76,-16 142,-26 197,-30 1,-23 1,-85 1,-186 0,-26 7,-57 22,-92 17,-43 38,-65 63,-65 18,-1 34,4 48,16 16,13 24,29 24,48 0,5 0,10 -1,16zm769 43c-28,41 -65,104 -113,189 -35,73 -73,157 -112,253 -11,27 -28,68 -50,122 -12,26 -29,41 -51,46 -22,6 -42,3 -59,-7 -17,-10 -28,-26 -31,-47 -35,-194 -55,-301 -61,-323 -21,-86 -42,-166 -64,-239 -1,-5 -6,-18 -13,-39 -5,-16 -9,-29 -11,-40 -5,-19 -2,-36 8,-52 10,-15 25,-26 45,-31 20,-4 37,-2 54,7 16,10 26,24 31,43 2,9 6,22 11,37 7,19 11,31 13,36 12,44 27,99 43,165 13,53 24,106 35,157 50,-114 114,-229 192,-345 13,-20 27,-48 43,-83 20,-43 33,-72 40,-85 2,-33 20,-53 54,-62 20,-5 38,-3 55,6 16,9 27,23 31,42 5,20 12,51 20,92 9,42 15,73 20,93 6,23 14,58 25,105 10,46 18,81 24,105 8,30 17,75 30,136 12,61 22,107 29,137 4,19 2,36 -8,52 -11,16 -26,26 -45,31 -20,4 -38,2 -54,-7 -17,-10 -27,-23 -32,-42 -7,-31 -17,-77 -30,-139 -12,-62 -22,-108 -29,-138 -6,-22 -12,-52 -21,-88 -10,-45 -16,-74 -19,-87zm1154 -77c31,-13 56,-16 76,-9 21,7 40,27 56,60 5,10 12,25 23,45 11,20 18,36 23,46 9,18 10,35 3,53 -7,17 -19,31 -38,39 -42,21 -76,6 -100,-45 -2,-3 -4,-8 -7,-14 -3,-7 -5,-12 -6,-15 -4,-7 -7,-13 -10,-19 -30,15 -64,31 -103,48 -87,37 -200,89 -341,157 -6,3 -14,7 -26,14 -11,7 -20,12 -25,15 -44,21 -74,15 -89,-18 -3,-6 -6,-16 -9,-30 -3,-17 -10,-37 -21,-60 -15,-30 -36,-74 -64,-133 -28,-60 -49,-104 -63,-134 -14,-28 -37,-69 -68,-123 -31,-54 -54,-95 -67,-123 -9,-18 -10,-36 -4,-54 6,-18 19,-31 38,-41 39,-18 70,-9 92,28 47,77 115,209 205,396 44,92 65,135 63,130 16,-8 43,-22 83,-41 35,-18 63,-32 83,-42 69,-33 125,-57 167,-71 -2,-6 -9,-22 -20,-48 -7,-19 -14,-36 -20,-48 -20,-41 -53,-106 -100,-195 -47,-89 -80,-155 -100,-197 -18,-36 -24,-64 -20,-85 5,-21 21,-38 49,-51 18,-9 36,-9 54,-2 17,8 29,19 37,36 9,18 21,49 37,93 17,43 30,76 41,99 43,90 100,202 171,339zm902 -436c-22,14 -63,4 -121,-32 -38,-23 -77,-52 -117,-88 -19,18 -50,44 -96,80 -42,34 -73,61 -94,81 9,40 18,102 29,186 2,29 -8,51 -30,66 -15,11 -33,15 -52,13 -20,-2 -35,-11 -47,-28 -10,-14 -23,-76 -39,-187 -10,-6 -17,-13 -22,-21 -8,-15 -2,-35 19,-60 -8,-97 -13,-199 -16,-307 -3,-154 3,-237 19,-249 31,-21 65,-17 101,14 26,26 66,64 120,116 73,69 158,147 254,234 8,6 28,20 60,40 27,17 45,32 53,44 11,17 15,34 10,54 -4,19 -15,34 -31,44zm-455 -323c4,53 9,125 16,216 10,-11 28,-27 54,-47 30,-24 49,-39 56,-46 -32,-32 -74,-73 -126,-123zm375 -411c21,-24 25,-50 11,-77 -14,-26 -29,-53 -43,-80 -21,-39 -37,-62 -47,-72 -13,-11 -28,-14 -45,-11 -17,3 -32,12 -44,26 -23,26 -26,53 -8,79 4,6 19,33 44,79 20,38 35,61 44,69 12,11 27,15 44,12 17,-3 32,-11 44,-25zm145 -166c20,-22 24,-45 14,-70 -5,-11 -18,-36 -42,-75 -24,-42 -40,-66 -46,-71 -12,-11 -27,-15 -45,-11 -17,3 -32,12 -43,25 -21,24 -25,49 -11,75 4,7 19,32 45,75 25,43 38,65 40,66 12,11 27,15 44,12 17,-3 32,-12 44,-26z"/>
 </g>
</svg>
